<svg width="24" height="24" viewBox="0 0 24 24" fill="none" xmlns="http://www.w3.org/2000/svg">
<mask id="mask0_7982_131249" style="mask-type:alpha" maskUnits="userSpaceOnUse" x="0" y="0" width="24" height="24">
<rect width="24" height="24" fill="#D9D9D9"/>
</mask>
<g mask="url(#mask0_7982_131249)">
<path d="M5.91245 8.08746L11.5125 2.48746C11.6125 2.38746 11.7208 2.31663 11.8375 2.27496C11.9541 2.2333 12.0791 2.21246 12.2125 2.21246C12.3458 2.21246 12.4708 2.2333 12.5875 2.27496C12.7041 2.31663 12.8125 2.38746 12.9125 2.48746L18.5125 8.08746C18.6958 8.2708 18.7875 8.49996 18.7875 8.77496C18.7875 9.04996 18.6958 9.28746 18.5125 9.48746C18.3125 9.68746 18.075 9.78746 17.8 9.78746C17.525 9.78746 17.2875 9.68746 17.0875 9.48746L13.2125 5.61246V20.7875C13.2125 21.0708 13.1166 21.3083 12.925 21.5C12.7333 21.6916 12.4958 21.7875 12.2125 21.7875C11.9291 21.7875 11.6916 21.6916 11.5 21.5C11.3083 21.3083 11.2125 21.0708 11.2125 20.7875V5.61246L7.31245 9.48746C7.12912 9.6708 6.89995 9.76663 6.62495 9.77496C6.34995 9.7833 6.11245 9.68746 5.91245 9.48746C5.72912 9.30413 5.63745 9.0708 5.63745 8.78746C5.63745 8.50413 5.72912 8.2708 5.91245 8.08746Z" fill="black"/>
</g>
</svg>
